<svg id="Layer_1" data-name="Layer 1" xmlns="http://www.w3.org/2000/svg" viewBox="0 0 593.84 145.71"><defs><style>.cls-1{fill:none;stroke:#1c75bc;stroke-miterlimit:10;stroke-width:4px;}.cls-2{fill:#231f20;}</style></defs><path class="cls-1" d="M87.1,119.88c-5.37,14.62-13.2,23.83-21.93,23.83C49,143.71,35.86,112,35.86,72.85c0-16.24,2.07-30.6,5.87-42.55" transform="translate(0)"/><path class="cls-1" d="M43.21,25.93C48.58,11.25,56.43,2,65.17,2c16.2,0,29.32,31.72,29.32,70.85,0,16.11-2.22,31-6,42.86" transform="translate(0)"/><path class="cls-1" d="M35.44,115.35c-15.36,2.67-27.26.49-31.63-7.07C-4.28,94.26,16.63,67,50.52,47.46c13.65-7.88,27.32-13.31,39.32-16.08" transform="translate(0)"/><path class="cls-1" d="M94.87,30.36c15.37-2.68,27.3-.5,31.66,7.07,8.1,14-12.81,41.25-46.7,60.81-13.79,8-27.6,13.43-39.68,16.17" transform="translate(0)"/><path class="cls-1" d="M16.85,72.22c8.39,9,19.94,18.14,33.59,26,33.89,19.57,67.93,24.06,76,10,4.35-7.53.33-18.88-9.58-30.8" transform="translate(0)"/><path class="cls-1" d="M113.61,73.76c-8.41-9.09-20-18.33-33.85-26.3-33.89-19.56-67.92-24-76-10-4.37,7.57-.29,19,9.73,31" transform="translate(0)"/><path class="cls-2" d="M183.39,22.86v8h-24v16h20.22v8H159.43v22H149.3v-54Z" transform="translate(0)"/><path class="cls-2" d="M202.6,76.9H192.51v-54H202.6Z" transform="translate(0)"/><path class="cls-2" d="M225.14,55.78V76.9H215.08v-54h16.48A34.46,34.46,0,0,1,241,24a18.13,18.13,0,0,1,6.47,3.19,12.39,12.39,0,0,1,3.7,4.92,16.42,16.42,0,0,1,1.17,6.29,16.21,16.21,0,0,1-.8,5.16A15,15,0,0,1,249.26,48a15.74,15.74,0,0,1-3.73,3.48,19.76,19.76,0,0,1-5.07,2.39,10,10,0,0,1,3.29,3.1l13.53,20h-9a4.39,4.39,0,0,1-2.22-.52,4.52,4.52,0,0,1-1.55-1.5L233.1,57.58a4,4,0,0,0-1.4-1.38,4.83,4.83,0,0,0-2.26-.42Zm0-7.21h6.28a15.67,15.67,0,0,0,5-.71,9.55,9.55,0,0,0,3.47-2,8,8,0,0,0,2-3,10.29,10.29,0,0,0,.67-3.78,7.65,7.65,0,0,0-2.71-6.31q-2.7-2.21-8.28-2.21h-6.42Z" transform="translate(0)"/><path class="cls-2" d="M292.67,32.69a2.84,2.84,0,0,1-.95,1.16,2.43,2.43,0,0,1-1.29.33,3.23,3.23,0,0,1-1.68-.58c-.62-.38-1.36-.81-2.21-1.29a18.1,18.1,0,0,0-3-1.29,12.64,12.64,0,0,0-4-.58,11.67,11.67,0,0,0-3.64.51,7.75,7.75,0,0,0-2.61,1.4,5.4,5.4,0,0,0-1.59,2.15,7,7,0,0,0-.53,2.75,4.75,4.75,0,0,0,1.07,3.17,8.89,8.89,0,0,0,2.82,2.17,25.41,25.41,0,0,0,4,1.61c1.49.47,3,1,4.58,1.51a46.31,46.31,0,0,1,4.58,1.87,16,16,0,0,1,4,2.69,12.14,12.14,0,0,1,2.83,4A13.84,13.84,0,0,1,296.11,60a18.74,18.74,0,0,1-1.25,6.86,16,16,0,0,1-3.66,5.57,17.32,17.32,0,0,1-5.89,3.74,21.67,21.67,0,0,1-8,1.36,26.12,26.12,0,0,1-5.08-.5,27.56,27.56,0,0,1-4.81-1.44,25,25,0,0,1-4.29-2.25,20.58,20.58,0,0,1-3.57-2.91l2.91-4.82a4,4,0,0,1,1-.88,2.41,2.41,0,0,1,1.29-.36,3.58,3.58,0,0,1,2,.77c.72.51,1.58,1.08,2.56,1.7a19.46,19.46,0,0,0,3.48,1.7,13.42,13.42,0,0,0,4.8.77,9.85,9.85,0,0,0,6.65-2,7.32,7.32,0,0,0,2.36-5.85,5.45,5.45,0,0,0-1.07-3.48,8.68,8.68,0,0,0-2.82-2.26,21.66,21.66,0,0,0-4-1.55q-2.24-.63-4.56-1.38a41.81,41.81,0,0,1-4.56-1.79,14.92,14.92,0,0,1-4-2.73A12.45,12.45,0,0,1,262.83,44a16,16,0,0,1-1.07-6.22A14.88,14.88,0,0,1,266.38,27a17.07,17.07,0,0,1,5.55-3.47,20.24,20.24,0,0,1,7.51-1.31,25.35,25.35,0,0,1,8.82,1.49,20,20,0,0,1,6.88,4.19Z" transform="translate(0)"/><path class="cls-2" d="M341.9,22.86v8.26H325.64V76.9H315.58V31.12H299.25V22.86Z" transform="translate(0)"/><path class="cls-2" d="M373.1,55.78V76.9H363.05v-54h16.48A34.46,34.46,0,0,1,389,24a18.08,18.08,0,0,1,6.46,3.19,12.3,12.3,0,0,1,3.7,4.92,16.24,16.24,0,0,1,1.18,6.29,16.49,16.49,0,0,1-.8,5.16A15,15,0,0,1,397.23,48a15.79,15.79,0,0,1-3.74,3.48,19.53,19.53,0,0,1-5.06,2.39,10.07,10.07,0,0,1,3.29,3.1l13.52,20h-9a4.39,4.39,0,0,1-2.22-.52,4.52,4.52,0,0,1-1.55-1.5l-11.37-17.3a3.9,3.9,0,0,0-1.4-1.38,4.8,4.8,0,0,0-2.26-.42Zm0-7.21h6.28a15.58,15.58,0,0,0,4.95-.71,9.59,9.59,0,0,0,3.48-2,8,8,0,0,0,2-3,10.29,10.29,0,0,0,.67-3.78,7.65,7.65,0,0,0-2.71-6.31q-2.71-2.21-8.28-2.21H373.1Z" transform="translate(0)"/><path class="cls-2" d="M445.76,22.86v8h-24v15h18.88v7.74H421.8V68.87h24v8H411.67v-54Z" transform="translate(0)"/><path class="cls-2" d="M502,76.9H494.2a3.44,3.44,0,0,1-2.15-.65,3.76,3.76,0,0,1-1.22-1.63l-4-11H464.41l-4,11a3.51,3.51,0,0,1-1.17,1.57,3.3,3.3,0,0,1-2.15.71h-7.81l21.22-54h10.28ZM467,56.49h17.23l-6.58-18q-.45-1.2-1-2.82c-.36-1.09-.72-2.27-1.06-3.54-.35,1.27-.7,2.46-1,3.55s-.67,2.06-1,2.88Z" transform="translate(0)"/><path class="cls-2" d="M542.78,64.16a1.91,1.91,0,0,1,1.43.63l4,4.3a21.73,21.73,0,0,1-8.09,6.24,27.85,27.85,0,0,1-11.53,2.17,27.22,27.22,0,0,1-10.82-2.06,23.82,23.82,0,0,1-8.21-5.71A25.09,25.09,0,0,1,504.31,61a32.8,32.8,0,0,1-1.82-11.1,30,30,0,0,1,2-11.16A25.19,25.19,0,0,1,519,24.3a30.1,30.1,0,0,1,11.27-2,26.69,26.69,0,0,1,10.52,1.92,24.81,24.81,0,0,1,7.72,5.11L545.1,34a3,3,0,0,1-.76.78,2.17,2.17,0,0,1-1.29.34,3,3,0,0,1-1.76-.67A21.37,21.37,0,0,0,539,33a18.34,18.34,0,0,0-3.49-1.46,18,18,0,0,0-5.37-.67,18.23,18.23,0,0,0-7,1.32,15.56,15.56,0,0,0-5.49,3.8,17.41,17.41,0,0,0-3.59,6,23,23,0,0,0-1.29,7.94A23.67,23.67,0,0,0,514.06,58a17.82,17.82,0,0,0,3.5,6,14.94,14.94,0,0,0,5.19,3.72A16.06,16.06,0,0,0,529.18,69a27.9,27.9,0,0,0,3.72-.23A15.25,15.25,0,0,0,536,68a13.46,13.46,0,0,0,2.66-1.25,16.47,16.47,0,0,0,2.48-1.89,3.69,3.69,0,0,1,.79-.54A2,2,0,0,1,542.78,64.16Z" transform="translate(0)"/><path class="cls-2" d="M593.84,22.86v8.26H577.58V76.9H567.53V31.12H551.19V22.86Z" transform="translate(0)"/><path class="cls-2" d="M205.84,103.19a22.43,22.43,0,0,1-1.41,8.12,18.24,18.24,0,0,1-4,6.26,17.75,17.75,0,0,1-6.18,4,21.51,21.51,0,0,1-8,1.43H171.42V83.32h14.86a21.51,21.51,0,0,1,8,1.43,17.78,17.78,0,0,1,6.18,4,18.43,18.43,0,0,1,4,6.28A22.43,22.43,0,0,1,205.84,103.19Zm-5.51,0a20.05,20.05,0,0,0-1-6.54,13.88,13.88,0,0,0-2.83-4.88,12.06,12.06,0,0,0-4.43-3,15.19,15.19,0,0,0-5.79-1.06h-9.45v31h9.45a15.38,15.38,0,0,0,5.79-1.05,12.3,12.3,0,0,0,4.43-3,13.7,13.7,0,0,0,2.83-4.86A20.05,20.05,0,0,0,200.33,103.19Z" transform="translate(0)"/><path class="cls-2" d="M237.62,83.32V87.7H218.56v13.19H234v4.21H218.56v13.55h19.06V123H213.15V83.32Z" transform="translate(0)"/><path class="cls-2" d="M240.75,83.32h4.3a1.77,1.77,0,0,1,1.16.36,2.22,2.22,0,0,1,.67.92l11.22,28a21.25,21.25,0,0,1,.71,2c.21.74.42,1.51.62,2.3.17-.79.35-1.56.54-2.3a15.39,15.39,0,0,1,.68-2l11.17-28a2.35,2.35,0,0,1,.66-.88,1.78,1.78,0,0,1,1.17-.4H278L261.79,123h-4.85Z" transform="translate(0)"/><path class="cls-2" d="M307.51,83.32V87.7H288.44v13.19h15.44v4.21H288.44v13.55h19.07V123H283V83.32Z" transform="translate(0)"/><path class="cls-2" d="M320.61,118.51h17.18V123H315.24V83.32h5.37Z" transform="translate(0)"/><path class="cls-2" d="M378.39,103.19a22.8,22.8,0,0,1-1.42,8.19,18.69,18.69,0,0,1-4,6.41,17.67,17.67,0,0,1-6.19,4.17,22.14,22.14,0,0,1-16,0,17.63,17.63,0,0,1-6.18-4.17,18.69,18.69,0,0,1-4-6.41,24.33,24.33,0,0,1,0-16.38,18.88,18.88,0,0,1,4-6.43,17.83,17.83,0,0,1,6.18-4.2,22.14,22.14,0,0,1,16,0,17.87,17.87,0,0,1,6.19,4.2A18.88,18.88,0,0,1,377,95,22.8,22.8,0,0,1,378.39,103.19Zm-5.52,0a20.33,20.33,0,0,0-1-6.57,14,14,0,0,0-2.83-4.92,12.42,12.42,0,0,0-4.43-3.09,15.09,15.09,0,0,0-5.82-1.08A14.93,14.93,0,0,0,353,88.61a12.5,12.5,0,0,0-4.45,3.09,13.69,13.69,0,0,0-2.84,4.92,22,22,0,0,0,0,13.12,13.73,13.73,0,0,0,2.84,4.91,12.21,12.21,0,0,0,4.45,3.07,14.93,14.93,0,0,0,5.79,1.07,15.09,15.09,0,0,0,5.82-1.07,12.13,12.13,0,0,0,4.43-3.07,14,14,0,0,0,2.83-4.91A20.17,20.17,0,0,0,372.87,103.19Z" transform="translate(0)"/><path class="cls-2" d="M391.63,108.18V123h-5.35V83.32H398a21.73,21.73,0,0,1,6.55.88,12.53,12.53,0,0,1,4.61,2.47,10.09,10.09,0,0,1,2.73,3.88,13.7,13.7,0,0,1,.9,5.07,12.92,12.92,0,0,1-1,5.08,10.83,10.83,0,0,1-2.84,4,13.09,13.09,0,0,1-4.64,2.59,19.9,19.9,0,0,1-6.34.93Zm0-4.27H398a12.23,12.23,0,0,0,4.05-.61,8.4,8.4,0,0,0,3-1.7,7.23,7.23,0,0,0,1.8-2.62,9.13,9.13,0,0,0,.61-3.36,7.6,7.6,0,0,0-2.34-5.92q-2.35-2.15-7.08-2.14h-6.38Z" transform="translate(0)"/><path class="cls-2" d="M439.81,110.08c.19.49.38,1,.56,1.48.19-.52.38-1,.59-1.48a15.56,15.56,0,0,1,.69-1.43l13.44-24.41a1.57,1.57,0,0,1,.75-.78,3.41,3.41,0,0,1,1.1-.14h4V123H456.2V93.85c0-.39,0-.8,0-1.25s0-.89.09-1.35L442.7,116.08a2.13,2.13,0,0,1-1.94,1.24H440a2.12,2.12,0,0,1-1.94-1.24L424.14,91.16c.05.48.09,1,.12,1.42s0,.88,0,1.27V123h-4.71V83.32h4a3.53,3.53,0,0,1,1.11.14,1.57,1.57,0,0,1,.75.78l13.72,24.44A10.66,10.66,0,0,1,439.81,110.08Z" transform="translate(0)"/><path class="cls-2" d="M495.05,83.32V87.7H476v13.19h15.44v4.21H476v13.55h19.07V123H470.58V83.32Z" transform="translate(0)"/><path class="cls-2" d="M506.61,83.5a2.73,2.73,0,0,1,.79.74l23,29.92c0-.48-.09-.94-.11-1.4s0-.89,0-1.31V83.32H535V123h-2.71a2.29,2.29,0,0,1-1.07-.22,2.72,2.72,0,0,1-.84-.75l-23-29.9c0,.46.06.92.08,1.36s0,.85,0,1.22V123h-4.71V83.32h2.77A2.38,2.38,0,0,1,506.61,83.5Z" transform="translate(0)"/><path class="cls-2" d="M571.72,83.32v4.52H558.89V123h-5.38V87.84H540.63V83.32Z" transform="translate(0)"/></svg>